<svg width="119" height="130" viewBox="0 0 119 130" fill="none" xmlns="http://www.w3.org/2000/svg">
<g filter="url(#filter0_dddd_2232_193)">
<rect y="26.1591" width="96" height="96" rx="18.75" transform="rotate(-15.8125 0 26.1591)" fill="#E40210"/>
<path d="M86.5909 46.8133L86.7455 46.9613L96.4228 56.1811L96.8992 56.6338L93.8896 57.4862L93.7337 57.3334L91.4768 55.1093L84.2005 57.1701L83.445 60.2472L83.3932 60.4588L80.4429 61.2944L80.6101 60.6593L84.0169 47.7341L84.0709 47.527L86.5909 46.8133ZM84.7679 54.8048L89.7563 53.3921L86.02 49.686L84.7679 54.8048Z" fill="black" stroke="black" stroke-width="0.75"/>
<path d="M63.2873 53.413L63.8716 55.4763L54.3365 58.1767L55.1029 60.8828L63.4936 58.5065L64.0641 60.521L55.6734 62.8973L56.4855 65.765L66.0207 63.0646L66.605 65.128L54.4136 68.5807L51.0958 56.8656L63.2873 53.413Z" fill="black" stroke="black" stroke-width="0.75"/>
<path d="M71.6768 51.037C74.0427 50.367 76.0254 50.2919 77.5591 50.856C79.116 51.4288 80.1541 52.64 80.6534 54.4029L80.8732 55.179C81.3724 56.9419 81.1236 58.5176 80.0982 59.8218C79.0881 61.1063 77.3604 62.082 74.9946 62.752L68.2566 64.6603L64.9389 52.9452L71.6768 51.037ZM70.3238 61.8277L74.1874 60.7335C75.8452 60.264 77.0159 59.6712 77.6792 58.8961C78.3172 58.1505 78.5289 57.1833 78.1452 55.8288L77.9896 55.2791C77.6059 53.9248 76.9188 53.213 75.9847 52.9126C75.0134 52.6004 73.7056 52.7086 72.0477 53.1781L68.184 54.2723L70.3238 61.8277Z" fill="black" stroke="black" stroke-width="0.75"/>
<path d="M44.9373 58.6098C46.357 58.2078 47.5902 58.1574 48.5677 58.5266C49.5672 58.9043 50.2413 59.6987 50.5661 60.8452C50.8909 61.9922 50.7325 63.019 50.0774 63.861C49.5211 64.576 48.6337 65.1207 47.4797 65.5153L52.9435 68.3221L53.7904 68.7572L50.28 69.7514L50.1469 69.6795L44.1693 66.4701L41.0235 67.361L42.3375 72.0008L39.6812 72.753L36.3634 61.038L44.9373 58.6098ZM40.4436 65.3136L46.2626 63.6656C47.0669 63.4378 47.5415 63.1382 47.7847 62.8113C48.0132 62.504 48.078 62.1159 47.9296 61.5919C47.7784 61.0586 47.5178 60.7599 47.1621 60.6166C46.7836 60.4644 46.223 60.4574 45.4185 60.6852L39.5995 62.3331L40.4436 65.3136Z" fill="black" stroke="black" stroke-width="0.75"/>
<path d="M29.526 62.7467C32.1487 62.004 34.7274 61.9958 36.3559 62.9195L36.7257 63.1284L36.472 63.4692L35.4829 64.7968L35.2905 65.0563L35.0056 64.9035C33.845 64.2833 31.9652 64.2321 30.0176 64.7836C28.9174 65.0952 28.0729 65.4981 27.5501 65.93C27.0265 66.3627 26.8925 66.7581 26.99 67.1026C27.0448 67.296 27.176 67.4386 27.4316 67.5438C27.702 67.6551 28.0861 67.7116 28.5795 67.7192C29.5698 67.7343 30.833 67.5553 32.1729 67.416C33.4851 67.2796 34.8645 67.1827 35.9976 67.3955C37.1456 67.6112 38.1248 68.1661 38.4707 69.3868C38.8344 70.671 38.401 71.7994 37.4372 72.7082C36.4906 73.6006 35.0217 74.2986 33.2389 74.8035C30.2703 75.6443 27.4131 75.7015 25.6218 74.5999L25.2737 74.3849L25.5175 74.056L26.5371 72.6853L26.7361 72.4168L27.0261 72.5843C28.3534 73.3555 30.4404 73.42 32.7868 72.7555C33.9887 72.4151 34.8326 72.0022 35.3294 71.5624C35.8106 71.1364 35.9362 70.7197 35.8162 70.2959C35.7523 70.0703 35.6063 69.9117 35.3488 69.7959C35.0762 69.6734 34.6922 69.6073 34.2001 69.5925C33.2117 69.5627 31.9509 69.7379 30.6172 69.8825C29.3112 70.0241 27.9391 70.135 26.8143 69.9405C25.675 69.7434 24.6967 69.2117 24.3552 68.0061C24.0036 66.7645 24.4883 65.6619 25.4486 64.7814C26.3977 63.9113 27.8393 63.2244 29.526 62.7467Z" fill="black" stroke="black" stroke-width="0.75"/>
<path d="M85.8059 44.0413L85.9605 44.1894L95.6378 53.4091L96.1141 53.8619L93.1046 54.7142L92.9486 54.5614L90.6918 52.3374L83.4155 54.3981L82.6599 57.4753L82.6082 57.6868L79.6578 58.5224L79.8251 57.8874L83.2318 44.9621L83.2858 44.755L85.8059 44.0413ZM83.9829 52.0329L88.9712 50.6201L85.235 46.914L83.9829 52.0329Z" fill="white" stroke="white" stroke-width="0.75"/>
<path d="M62.5023 50.6411L63.0867 52.7045L53.5516 55.4049L54.3179 58.111L62.7086 55.7347L63.2792 57.7492L54.8885 60.1255L55.7006 62.9932L65.2358 60.2928L65.8201 62.3561L53.6287 65.8088L50.3109 54.0938L62.5023 50.6411Z" fill="white" stroke="white" stroke-width="0.75"/>
<path d="M70.8918 48.2652C73.2576 47.5952 75.2403 47.52 76.774 48.0842C78.3309 48.657 79.3691 49.8682 79.8683 51.6311L80.0881 52.4072C80.5874 54.17 80.3386 55.7458 79.3132 57.0499C78.303 58.3345 76.5754 59.3101 74.2095 59.9802L67.4716 61.8884L64.1538 50.1734L70.8918 48.2652ZM69.5387 59.0558L73.4024 57.9616C75.0602 57.4921 76.2309 56.8994 76.8942 56.1242C77.5321 55.3786 77.7438 54.4115 77.3602 53.0569L77.2045 52.5073C76.8209 51.153 76.1337 50.4411 75.1997 50.1408C74.2284 49.8285 72.9205 49.9367 71.2627 50.4062L67.399 51.5005L69.5387 59.0558Z" fill="white" stroke="white" stroke-width="0.75"/>
<path d="M44.1524 55.838C45.5721 55.436 46.8053 55.3855 47.7828 55.7548C48.7823 56.1325 49.4564 56.9269 49.7812 58.0733C50.106 59.2203 49.9476 60.2472 49.2925 61.0892C48.7362 61.8042 47.8488 62.3489 46.6948 62.7434L52.1585 65.5503L53.0054 65.9854L49.4951 66.9795L49.362 66.9076L43.3843 63.6982L40.2385 64.5891L41.5526 69.2289L38.8963 69.9812L35.5785 58.2662L44.1524 55.838ZM39.6587 62.5417L45.4777 60.8937C46.282 60.6659 46.7566 60.3664 46.9998 60.0394C47.2283 59.7322 47.2931 59.3441 47.1447 58.82C46.9935 58.2868 46.7329 57.988 46.3772 57.8448C45.9987 57.6925 45.4381 57.6855 44.6336 57.9133L38.8146 59.5613L39.6587 62.5417Z" fill="white" stroke="white" stroke-width="0.75"/>
<path d="M28.7417 59.9766C31.3644 59.2339 33.9431 59.2256 35.5716 60.1494L35.9414 60.3583L35.6877 60.6991L34.6986 62.0267L34.5062 62.2862L34.2213 62.1334C33.0607 61.5132 31.1809 61.4619 29.2333 62.0134C28.1331 62.325 27.2886 62.7279 26.7658 63.1599C26.2422 63.5925 26.1082 63.9879 26.2057 64.3324C26.2605 64.5258 26.3917 64.6685 26.6473 64.7737C26.9177 64.8849 27.3018 64.9414 27.7952 64.949C28.7855 64.9642 30.0487 64.7852 31.3886 64.6459C32.7008 64.5094 34.0802 64.4125 35.2133 64.6254C36.3613 64.8411 37.3405 65.396 37.6864 66.6167C38.0501 67.9008 37.6167 69.0293 36.6529 69.938C35.7063 70.8305 34.2374 71.5284 32.4546 72.0334C29.486 72.8741 26.6288 72.9313 24.8375 71.8298L24.4894 71.6147L24.7332 71.2859L25.7528 69.9152L25.9518 69.6467L26.2418 69.8142C27.5691 70.5853 29.6561 70.6498 32.0025 69.9853C33.2044 69.6449 34.0483 69.2321 34.5451 68.7923C35.0263 68.3662 35.1519 67.9496 35.0319 67.5258C34.968 67.3002 34.822 67.1416 34.5645 67.0258C34.2919 66.9033 33.9079 66.8372 33.4158 66.8223C32.4274 66.7925 31.1666 66.9678 29.8329 67.1123C28.5269 67.2539 27.1548 67.3649 26.03 67.1703C24.8907 66.9732 23.9124 66.4416 23.5709 65.2359C23.2193 63.9943 23.704 62.8917 24.6643 62.0113C25.6134 61.1411 27.055 60.4543 28.7417 59.9766Z" fill="white" stroke="white" stroke-width="0.75"/>
</g>
<defs>
<filter id="filter0_dddd_2232_193" x="-4" y="0" width="126.526" height="133.526" filterUnits="userSpaceOnUse" color-interpolation-filters="sRGB">
<feFlood flood-opacity="0" result="BackgroundImageFix"/>
<feColorMatrix in="SourceAlpha" type="matrix" values="0 0 0 0 0 0 0 0 0 0 0 0 0 0 0 0 0 0 127 0" result="hardAlpha"/>
<feOffset dy="1"/>
<feGaussianBlur stdDeviation="0.5"/>
<feColorMatrix type="matrix" values="0 0 0 0 0 0 0 0 0 0 0 0 0 0 0 0 0 0 0.1 0"/>
<feBlend mode="normal" in2="BackgroundImageFix" result="effect1_dropShadow_2232_193"/>
<feColorMatrix in="SourceAlpha" type="matrix" values="0 0 0 0 0 0 0 0 0 0 0 0 0 0 0 0 0 0 127 0" result="hardAlpha"/>
<feOffset dy="3"/>
<feGaussianBlur stdDeviation="1.5"/>
<feColorMatrix type="matrix" values="0 0 0 0 0 0 0 0 0 0 0 0 0 0 0 0 0 0 0.09 0"/>
<feBlend mode="normal" in2="effect1_dropShadow_2232_193" result="effect2_dropShadow_2232_193"/>
<feColorMatrix in="SourceAlpha" type="matrix" values="0 0 0 0 0 0 0 0 0 0 0 0 0 0 0 0 0 0 127 0" result="hardAlpha"/>
<feOffset dy="6"/>
<feGaussianBlur stdDeviation="2"/>
<feColorMatrix type="matrix" values="0 0 0 0 0 0 0 0 0 0 0 0 0 0 0 0 0 0 0.05 0"/>
<feBlend mode="normal" in2="effect2_dropShadow_2232_193" result="effect3_dropShadow_2232_193"/>
<feColorMatrix in="SourceAlpha" type="matrix" values="0 0 0 0 0 0 0 0 0 0 0 0 0 0 0 0 0 0 127 0" result="hardAlpha"/>
<feOffset dy="11"/>
<feGaussianBlur stdDeviation="2"/>
<feColorMatrix type="matrix" values="0 0 0 0 0 0 0 0 0 0 0 0 0 0 0 0 0 0 0.01 0"/>
<feBlend mode="normal" in2="effect3_dropShadow_2232_193" result="effect4_dropShadow_2232_193"/>
<feBlend mode="normal" in="SourceGraphic" in2="effect4_dropShadow_2232_193" result="shape"/>
</filter>
</defs>
</svg>
