<svg width="74" height="53" viewBox="0 0 74 53" fill="none" xmlns="http://www.w3.org/2000/svg">
<g filter="url(#filter0_dddd_2220_12565)">
<g clip-path="url(#clip0_2220_12565)">
<rect x="3.6073" y="20.975" width="64.5954" height="14.6565" rx="7.32824" transform="rotate(-18.9482 3.6073 20.975)" fill="#E40210"/>
<path d="M25.1201 22.3177C25.2339 22.6489 25.2082 22.9413 25.0408 23.1878C24.8758 23.4414 24.5806 23.6372 24.1649 23.78L22.4666 24.363L21.2232 20.741L22.9214 20.158C23.2878 20.0322 23.6033 20.0105 23.8585 20.0883C24.1066 20.1686 24.2849 20.3437 24.3792 20.6185C24.5292 21.0554 24.4146 21.4098 24.0376 21.6653L24.0424 21.6794C24.5812 21.5968 24.946 21.8103 25.1201 22.3177ZM23.974 20.8837C23.8385 20.489 23.5077 20.3742 23.0003 20.5484L21.7953 20.9621L22.2017 22.1459L23.4067 21.7322C23.6534 21.6476 23.8267 21.5329 23.9243 21.3812C24.0173 21.239 24.0369 21.0669 23.974 20.8837ZM24.6593 22.4208C24.5093 21.9839 24.1313 21.8695 23.5253 22.0775L22.3203 22.4912L22.7824 23.8371L23.9873 23.4234C24.5934 23.2154 24.8189 22.8858 24.6593 22.4208ZM24.8631 19.4913L25.3071 19.3389L25.7958 20.7624L26.9726 20.3583C27.3249 20.2374 27.6336 20.2417 27.9127 20.3664C28.1848 20.4936 28.3824 20.725 28.4986 21.0633C28.6171 21.4086 28.6033 21.7126 28.4667 21.9801C28.3231 22.25 28.0797 22.4359 27.7274 22.5569L26.1066 23.1133L24.8631 19.4913ZM28.0546 21.2157C27.9772 20.9902 27.8368 20.8336 27.6523 20.7552C27.4678 20.6767 27.2488 20.681 26.9951 20.7681L25.924 21.1358L26.4223 22.5874L27.4934 22.2197C27.7471 22.1326 27.9321 22.0061 28.0295 21.8309C28.1269 21.6556 28.1369 21.4553 28.0546 21.2157ZM28.316 18.3059L28.7599 18.1535L30.0034 21.7755L29.5595 21.9279L28.316 18.3059ZM33.4198 19.1532C33.5015 19.5978 33.458 19.9987 33.2773 20.3443C33.0967 20.6899 32.7949 20.9353 32.3721 21.0804C31.8648 21.2546 31.398 21.2258 30.9764 20.9846C30.5503 20.7528 30.245 20.3455 30.0491 19.7748C29.8459 19.1828 29.8317 18.6599 30.0208 18.2011C30.2099 17.7424 30.5557 17.4188 31.0701 17.2422C31.4859 17.0995 31.8628 17.0961 32.1986 17.225C32.5367 17.361 32.7958 17.6108 32.9852 17.979L32.5342 18.1338C32.2136 17.5901 31.7667 17.4127 31.203 17.6062C30.8225 17.7369 30.5678 17.9818 30.4391 18.3411C30.3104 18.7004 30.3329 19.1101 30.495 19.5823C30.6595 20.0614 30.8934 20.3986 31.2087 20.6055C31.5168 20.8148 31.8587 20.8471 32.2252 20.7213C32.5282 20.6172 32.7458 20.448 32.8802 20.1971C33.0075 19.9485 33.0402 19.6537 32.9759 19.3056L33.4198 19.1532ZM36.0796 16.058L34.7337 16.5201L35.849 19.7686L35.405 19.921L34.2898 16.6725L32.9438 17.1346L32.8156 16.7611L35.9514 15.6846L36.0796 16.058ZM40.5438 17.7551L40.6599 18.0933C40.5617 18.1743 40.4538 18.2271 40.3269 18.2706C40.1296 18.3384 39.9834 18.3255 39.8859 18.2251C39.7838 18.1341 39.7 17.9817 39.6274 17.7703C39.4843 18.363 39.1156 18.7574 38.5095 18.9655C38.1361 19.0937 37.8181 19.1083 37.5438 18.9977C37.2719 18.8941 37.0886 18.6813 36.9773 18.3572C36.7548 17.7089 37.0705 17.183 37.9386 16.7747C37.9809 16.7602 38.0489 16.7289 38.1311 16.6929C38.2132 16.6568 38.2671 16.6304 38.307 16.6088C38.3493 16.5943 38.3962 16.5703 38.4572 16.5415C38.5182 16.5127 38.5651 16.4887 38.5909 16.472C38.6191 16.4623 38.6589 16.4407 38.6964 16.4121C38.7362 16.3906 38.769 16.3714 38.7924 16.3477C38.8181 16.3309 38.8439 16.3142 38.8673 16.2904C38.8906 16.2667 38.9069 16.2453 38.9303 16.2216C38.9955 16.1361 38.999 16.0089 38.9386 15.8327C38.8418 15.5509 38.6871 15.3755 38.4909 15.309C38.2901 15.2519 38.0358 15.2683 37.7258 15.3747C37.4157 15.4812 37.2074 15.6315 37.0937 15.828C36.98 16.0246 36.961 16.2675 37.032 16.5661L36.6092 16.7112C36.4902 16.3188 36.5271 15.9674 36.7082 15.6689C36.8893 15.3704 37.1983 15.1462 37.6493 14.9914C38.058 14.851 38.4136 14.8314 38.7137 14.9253C39.0162 15.0262 39.223 15.2388 39.3392 15.577L40.0166 17.5501C40.0504 17.6487 40.0722 17.7122 40.0938 17.752C40.1083 17.7943 40.1415 17.8223 40.1888 17.8454C40.2362 17.8686 40.2974 17.8633 40.3819 17.8343C40.4383 17.8149 40.4923 17.7885 40.5438 17.7551ZM39.1442 16.4317C39.1188 16.4955 39.0629 16.562 38.9739 16.6241C38.8849 16.6861 38.8076 16.7363 38.735 16.777C38.6552 16.8201 38.5286 16.8872 38.3456 16.9737C38.2987 16.9977 38.2659 17.0168 38.2448 17.0241C38.097 17.0984 37.9845 17.1607 37.8931 17.2157C37.8041 17.2778 37.7105 17.3493 37.603 17.4492C37.4955 17.5491 37.4281 17.651 37.3985 17.7715C37.369 17.8919 37.3795 18.0143 37.4279 18.1552C37.5005 18.3666 37.629 18.5116 37.8276 18.5852C38.0191 18.6612 38.2428 18.6474 38.4965 18.5603C38.8347 18.4442 39.0968 18.244 39.2662 17.9574C39.4357 17.6707 39.4635 17.3618 39.3474 17.0236L39.1442 16.4317ZM43.7897 15.9081C43.9034 16.2393 43.8777 16.5317 43.7103 16.7782C43.5453 17.0318 43.2502 17.2277 42.8344 17.3704L41.1362 17.9534L39.8927 14.3314L41.5909 13.7484C41.9574 13.6226 42.2729 13.6009 42.528 13.6788C42.7761 13.759 42.9544 13.9341 43.0488 14.2089C43.1988 14.6458 43.0841 15.0003 42.7071 15.2557L42.7119 15.2698C43.2507 15.1873 43.6155 15.4008 43.7897 15.9081ZM42.6435 14.4741C42.5081 14.0795 42.1772 13.9646 41.6698 14.1388L40.4648 14.5525L40.8713 15.7363L42.0763 15.3227C42.3229 15.238 42.4962 15.1233 42.5938 14.9717C42.6868 14.8295 42.7064 14.6573 42.6435 14.4741ZM43.3288 16.0112C43.1788 15.5743 42.8008 15.4599 42.1948 15.6679L40.9898 16.0816L41.4519 17.4275L42.6569 17.0139C43.2629 16.8058 43.4885 16.4763 43.3288 16.0112ZM45.5456 13.9661L47.9401 15.6175L47.3834 15.8086L45.3255 14.3804L44.8203 15.318L45.2412 16.5441L44.7973 16.6965L43.5538 13.0745L43.9977 12.9221L44.634 14.7754L46.0131 12.2302L46.605 12.027L45.5456 13.9661ZM51.3753 14.0364L51.4914 14.3747C51.3932 14.4557 51.2853 14.5085 51.1584 14.552C50.9611 14.6197 50.8149 14.6069 50.7174 14.5065C50.6153 14.4155 50.5315 14.2631 50.4589 14.0517C50.3158 14.6444 49.947 15.0388 49.341 15.2468C48.9676 15.3751 48.6496 15.3897 48.3753 15.2791C48.1034 15.1755 47.9201 14.9627 47.8088 14.6386C47.5863 13.9903 47.902 13.4644 48.7701 13.0561C48.8124 13.0415 48.8804 13.0103 48.9625 12.9742C49.0447 12.9381 49.0986 12.9117 49.1385 12.8902C49.1808 12.8757 49.2277 12.8517 49.2887 12.8229C49.3497 12.7941 49.3966 12.7701 49.4224 12.7533C49.4505 12.7437 49.4904 12.7221 49.5279 12.6935C49.5677 12.6719 49.6005 12.6528 49.6239 12.629C49.6496 12.6123 49.6754 12.5956 49.6988 12.5718C49.7221 12.548 49.7384 12.5267 49.7618 12.5029C49.827 12.4175 49.8305 12.2902 49.7701 12.1141C49.6733 11.8322 49.5186 11.6569 49.3224 11.5903C49.1216 11.5332 48.8673 11.5496 48.5573 11.6561C48.2472 11.7625 48.0389 11.9128 47.9252 12.1094C47.8115 12.306 47.7925 12.5488 47.8635 12.8474L47.4407 12.9926C47.3217 12.6002 47.3586 12.2488 47.5397 11.9503C47.7208 11.6518 48.0298 11.4275 48.4808 11.2727C48.8895 11.1324 49.2451 11.1127 49.5452 11.2066C49.8476 11.3076 50.0545 11.5201 50.1707 11.8584L50.848 13.8315C50.8819 13.9301 50.9037 13.9935 50.9252 14.0334C50.9398 14.0757 50.973 14.1036 51.0203 14.1268C51.0677 14.1499 51.1289 14.1447 51.2134 14.1156C51.2698 14.0963 51.3238 14.0699 51.3753 14.0364ZM49.9757 12.713C49.9503 12.7769 49.8944 12.8434 49.8054 12.9054C49.7164 12.9675 49.6391 13.0176 49.5665 13.0583C49.4867 13.1015 49.3601 13.1686 49.1771 13.255C49.1302 13.279 49.0974 13.2982 49.0762 13.3054C48.9285 13.3798 48.8159 13.4421 48.7245 13.4971C48.6356 13.5591 48.542 13.6306 48.4345 13.7306C48.327 13.8305 48.2596 13.9324 48.23 14.0528C48.2005 14.1732 48.211 14.2957 48.2594 14.4366C48.332 14.648 48.4605 14.7929 48.6591 14.8665C48.8506 14.9426 49.0743 14.9288 49.328 14.8417C49.6662 14.7256 49.9283 14.5253 50.0977 14.2387C50.2672 13.9521 50.295 13.6432 50.1789 13.305L49.9757 12.713Z" fill="white"/>
</g>
</g>
<defs>
<filter id="filter0_dddd_2220_12565" x="-1.98049" y="-0.931259" width="77.0299" height="55.7915" filterUnits="userSpaceOnUse" color-interpolation-filters="sRGB">
<feFlood flood-opacity="0" result="BackgroundImageFix"/>
<feColorMatrix in="SourceAlpha" type="matrix" values="0 0 0 0 0 0 0 0 0 0 0 0 0 0 0 0 0 0 127 0" result="hardAlpha"/>
<feOffset dy="0.931298"/>
<feGaussianBlur stdDeviation="0.931298"/>
<feColorMatrix type="matrix" values="0 0 0 0 0 0 0 0 0 0 0 0 0 0 0 0 0 0 0.05 0"/>
<feBlend mode="normal" in2="BackgroundImageFix" result="effect1_dropShadow_2220_12565"/>
<feColorMatrix in="SourceAlpha" type="matrix" values="0 0 0 0 0 0 0 0 0 0 0 0 0 0 0 0 0 0 127 0" result="hardAlpha"/>
<feOffset dy="3.72519"/>
<feGaussianBlur stdDeviation="1.8626"/>
<feColorMatrix type="matrix" values="0 0 0 0 0 0 0 0 0 0 0 0 0 0 0 0 0 0 0.04 0"/>
<feBlend mode="normal" in2="effect1_dropShadow_2220_12565" result="effect2_dropShadow_2220_12565"/>
<feColorMatrix in="SourceAlpha" type="matrix" values="0 0 0 0 0 0 0 0 0 0 0 0 0 0 0 0 0 0 127 0" result="hardAlpha"/>
<feOffset dy="7.91603"/>
<feGaussianBlur stdDeviation="2.32824"/>
<feColorMatrix type="matrix" values="0 0 0 0 0 0 0 0 0 0 0 0 0 0 0 0 0 0 0.03 0"/>
<feBlend mode="normal" in2="effect2_dropShadow_2220_12565" result="effect3_dropShadow_2220_12565"/>
<feColorMatrix in="SourceAlpha" type="matrix" values="0 0 0 0 0 0 0 0 0 0 0 0 0 0 0 0 0 0 127 0" result="hardAlpha"/>
<feOffset dy="14.4351"/>
<feGaussianBlur stdDeviation="2.79389"/>
<feColorMatrix type="matrix" values="0 0 0 0 0 0 0 0 0 0 0 0 0 0 0 0 0 0 0.01 0"/>
<feBlend mode="normal" in2="effect3_dropShadow_2220_12565" result="effect4_dropShadow_2220_12565"/>
<feBlend mode="normal" in="SourceGraphic" in2="effect4_dropShadow_2220_12565" result="shape"/>
</filter>
<clipPath id="clip0_2220_12565">
<rect x="3.6073" y="20.975" width="64.5954" height="14.6565" rx="7.32824" transform="rotate(-18.9482 3.6073 20.975)" fill="white"/>
</clipPath>
</defs>
</svg>
