<svg width="72" height="39" viewBox="0 0 72 39" fill="none" xmlns="http://www.w3.org/2000/svg">
<g filter="url(#filter0_dddd_2220_12587)">
<rect x="5.12946" y="4.3916" width="60.5954" height="14.6565" rx="7.32824" transform="rotate(-3.70789 5.12946 4.3916)" fill="#E40210"/>
<path d="M23.8822 10.1798L25.7583 12.4026L25.171 12.4406L23.5609 10.5217L22.827 11.2934L22.9108 12.5871L22.4424 12.6174L22.1948 8.79597L22.6632 8.76561L22.7899 10.721L24.7895 8.62782L25.414 8.58734L23.8822 10.1798ZM27.5331 8.33802C28.0833 8.30237 28.5266 8.46029 28.8773 8.8034C29.2285 9.15394 29.4239 9.63403 29.4644 10.2586C29.5049 10.8831 29.3731 11.3844 29.0765 11.762C28.7725 12.14 28.3454 12.3469 27.7953 12.3825C27.2376 12.4187 26.78 12.2692 26.4293 11.9261C26.0785 11.5829 25.8831 11.1029 25.8427 10.4783C25.8032 9.86868 25.9349 9.36738 26.238 8.97444C26.5415 8.58894 26.9755 8.37416 27.5331 8.33802ZM27.5512 8.73255C27.1423 8.75905 26.8248 8.92894 26.6062 9.24175C26.3801 9.55504 26.2867 9.9568 26.3185 10.4475C26.3513 10.9531 26.4962 11.3468 26.7529 11.6214C27.0101 11.9033 27.3539 12.0229 27.7776 11.9955C28.1791 11.9694 28.4971 11.807 28.7157 11.4942C28.9349 11.1888 29.0283 10.787 28.9955 10.2815C28.9632 9.78334 28.8113 9.39749 28.5541 9.11552C28.2895 8.83403 27.9527 8.70653 27.5512 8.73255ZM33.3988 11.9074L32.9304 11.9378L32.8138 10.1386L30.6354 10.2797L30.752 12.0789L30.2836 12.1093L30.036 8.28782L30.5044 8.25746L30.6099 9.88568L32.7883 9.74451L32.6827 8.11629L33.1511 8.08594L33.3988 11.9074ZM37.9767 12.8352L37.5083 12.8655L37.4293 11.6462L34.2546 11.852L34.007 8.03048L34.4753 8.00012L34.6975 11.4276L36.8759 11.2864L36.6537 7.85895L37.1221 7.8286L37.3442 11.256L37.8721 11.2218L37.9767 12.8352ZM41.5162 10.1196C41.455 10.5566 41.2987 10.9102 41.0321 11.1738C40.7655 11.4375 40.4089 11.58 39.9702 11.6085C39.4349 11.6432 38.9996 11.4922 38.6563 11.1486C38.3134 10.8125 38.126 10.3393 38.0865 9.72966C38.0475 9.12744 38.1718 8.62663 38.4739 8.21882C38.7759 7.81101 39.1798 7.59073 39.7002 7.557C40.2355 7.52231 40.6644 7.68863 40.9789 8.04901C41.2939 8.41683 41.473 8.87559 41.5096 9.44063L41.5183 9.57446L38.5666 9.76574C38.5955 10.2118 38.7232 10.5694 38.9581 10.8528C39.193 11.1362 39.5293 11.2563 39.9605 11.2283C40.585 11.1879 40.9574 10.8278 41.0627 10.149L41.5162 10.1196ZM41.0253 9.22564C40.9681 8.80378 40.8274 8.47693 40.5964 8.25299C40.358 8.02953 40.0672 7.92144 39.7104 7.94457C39.3238 7.96963 39.0346 8.11529 38.8502 8.38108C38.6659 8.64687 38.5607 8.98219 38.5421 9.38656L41.0253 9.22564ZM42.4694 7.48207L42.5171 8.21811C42.7555 7.63524 43.1907 7.32333 43.8301 7.28189C44.3506 7.24816 44.779 7.40705 45.1153 7.75855C45.4517 8.11006 45.6475 8.59759 45.687 9.20724C45.7265 9.81689 45.6017 10.3103 45.3136 10.7022C45.0254 11.0942 44.6206 11.2996 44.1076 11.3329C43.4608 11.3748 42.9894 11.1291 42.701 10.5953L42.8393 12.7291L42.3857 12.7585L42.0456 7.50953L42.4694 7.48207ZM43.7957 7.67235C43.3942 7.69837 43.0842 7.86779 42.8725 8.17268C42.6613 8.48501 42.5758 8.89371 42.6085 9.39928C42.6413 9.90484 42.7784 10.2917 43.0351 10.5662C43.2923 10.8482 43.6211 10.9687 44.0226 10.9427C44.4092 10.9176 44.7123 10.7561 44.9309 10.4433C45.1496 10.1305 45.243 9.72877 45.2112 9.23808C45.1789 8.73995 45.0339 8.34618 44.7768 8.0642C44.5196 7.78223 44.1972 7.64634 43.7957 7.67235ZM49.0497 7.45132L47.6297 7.54335L47.8518 10.9708L47.3834 11.0011L47.1613 7.5737L45.7412 7.66573L45.7157 7.27169L49.0242 7.05728L49.0497 7.45132Z" fill="white"/>
</g>
<defs>
<filter id="filter0_dddd_2220_12587" x="-0.458331" y="-0.458397" width="72.592" height="39.4988" filterUnits="userSpaceOnUse" color-interpolation-filters="sRGB">
<feFlood flood-opacity="0" result="BackgroundImageFix"/>
<feColorMatrix in="SourceAlpha" type="matrix" values="0 0 0 0 0 0 0 0 0 0 0 0 0 0 0 0 0 0 127 0" result="hardAlpha"/>
<feOffset dy="0.931298"/>
<feGaussianBlur stdDeviation="0.931298"/>
<feColorMatrix type="matrix" values="0 0 0 0 0 0 0 0 0 0 0 0 0 0 0 0 0 0 0.05 0"/>
<feBlend mode="normal" in2="BackgroundImageFix" result="effect1_dropShadow_2220_12587"/>
<feColorMatrix in="SourceAlpha" type="matrix" values="0 0 0 0 0 0 0 0 0 0 0 0 0 0 0 0 0 0 127 0" result="hardAlpha"/>
<feOffset dy="3.72519"/>
<feGaussianBlur stdDeviation="1.8626"/>
<feColorMatrix type="matrix" values="0 0 0 0 0 0 0 0 0 0 0 0 0 0 0 0 0 0 0.04 0"/>
<feBlend mode="normal" in2="effect1_dropShadow_2220_12587" result="effect2_dropShadow_2220_12587"/>
<feColorMatrix in="SourceAlpha" type="matrix" values="0 0 0 0 0 0 0 0 0 0 0 0 0 0 0 0 0 0 127 0" result="hardAlpha"/>
<feOffset dy="7.91603"/>
<feGaussianBlur stdDeviation="2.32824"/>
<feColorMatrix type="matrix" values="0 0 0 0 0 0 0 0 0 0 0 0 0 0 0 0 0 0 0.03 0"/>
<feBlend mode="normal" in2="effect2_dropShadow_2220_12587" result="effect3_dropShadow_2220_12587"/>
<feColorMatrix in="SourceAlpha" type="matrix" values="0 0 0 0 0 0 0 0 0 0 0 0 0 0 0 0 0 0 127 0" result="hardAlpha"/>
<feOffset dy="14.4351"/>
<feGaussianBlur stdDeviation="2.79389"/>
<feColorMatrix type="matrix" values="0 0 0 0 0 0 0 0 0 0 0 0 0 0 0 0 0 0 0.01 0"/>
<feBlend mode="normal" in2="effect3_dropShadow_2220_12587" result="effect4_dropShadow_2220_12587"/>
<feBlend mode="normal" in="SourceGraphic" in2="effect4_dropShadow_2220_12587" result="shape"/>
</filter>
</defs>
</svg>
