<svg width="122" height="126" viewBox="0 0 122 126" fill="none" xmlns="http://www.w3.org/2000/svg">
<rect width="110.784" height="110.784" rx="21.6376" transform="matrix(0.990252 -0.139284 0.10464 0.99451 0 15.4305)" fill="white"/>
<path d="M94.3381 55.8074L94.4851 56.0016L103.644 68.1152L104.094 68.7112L100.52 69.214L100.374 69.0137L98.2506 66.1034L89.6111 67.3186L88.1538 70.7326L88.0529 70.9675L84.5493 71.4603L84.8629 70.7569L91.2436 56.4576L91.346 56.2283L94.3381 55.8074ZM90.7147 64.6935L96.6368 63.8605L93.132 59.0156L90.7147 64.6935Z" fill="white" stroke="white" stroke-width="0.865503"/>
<path d="M66.6617 59.7006L66.9207 62.1616L55.5947 63.7546L55.9342 66.9819L65.8996 65.5803L66.1525 67.984L56.1872 69.3857L56.547 72.8053L67.873 71.2122L68.132 73.6742L53.6515 75.711L52.1812 61.7373L66.6617 59.7006Z" fill="white" stroke="white" stroke-width="0.865503"/>
<path d="M76.6249 58.2986C79.4349 57.9034 81.6944 58.1303 83.3211 59.0204C84.9725 59.9241 85.9123 61.4785 86.1337 63.5813L86.231 64.5068C86.4523 66.6098 85.8623 68.3802 84.4464 69.7153C83.0517 71.0303 80.9051 71.877 78.0952 72.2723L70.0929 73.3978L68.6226 59.4242L76.6249 58.2986ZM72.9864 70.4737L77.576 69.8282C79.545 69.5512 80.9855 69.0546 81.888 68.2696C82.7559 67.5144 83.185 66.4379 83.015 64.8222L82.946 64.1666C82.7759 62.5511 82.1363 61.6257 81.1371 61.1332C80.0981 60.6212 78.5968 60.5384 76.6277 60.8154L72.0381 61.461L72.9864 70.4737Z" fill="white" stroke="white" stroke-width="0.865503"/>
<path d="M44.8666 62.7656C46.553 62.5284 47.9596 62.6658 48.9945 63.2445C50.0525 63.8361 50.6603 64.8541 50.8043 66.2216C50.9482 67.5896 50.5688 68.7429 49.6629 69.606C48.8935 70.3389 47.7823 70.8254 46.3986 71.096L52.0374 75.1805L52.9108 75.8146L48.7429 76.4008L48.6053 76.297L42.4617 71.6675L38.726 72.193L39.3084 77.7278L36.1539 78.1715L34.6836 64.1979L44.8666 62.7656ZM38.4691 69.7514L45.3796 68.7794C46.3353 68.6449 46.9319 68.3752 47.2712 68.0382C47.5897 67.7216 47.7388 67.2869 47.673 66.662C47.606 66.0258 47.3688 65.6408 46.9938 65.4202C46.5948 65.1857 45.9609 65.0894 45.0055 65.2238L38.095 66.1958L38.4691 69.7514Z" fill="white" stroke="white" stroke-width="0.865503"/>
<path d="M26.6069 65.0791C29.7217 64.6411 32.6436 65.0387 34.3075 66.3565L34.6853 66.6552L34.3317 67.0065L32.9526 68.3743L32.6834 68.6418L32.3913 68.4217C31.198 67.5262 29.0793 67.1707 26.766 67.4961C25.4592 67.6799 24.4248 68.008 23.7485 68.4212C23.0707 68.8352 22.8425 69.2678 22.8857 69.6789C22.91 69.9096 23.0305 70.0941 23.2997 70.2554C23.5841 70.4257 24.0076 70.5506 24.5646 70.6373C25.6831 70.8112 27.1484 70.807 28.6929 70.8588C30.2056 70.9096 31.7871 71.0151 33.0287 71.4386C34.2866 71.8677 35.2867 72.6601 35.44 74.1163C35.6011 75.6482 34.8899 76.8755 33.6209 77.7664C32.3746 78.6413 30.5751 79.21 28.4577 79.5078C24.9319 80.0037 21.686 79.6169 19.8725 78.0691L19.519 77.768L19.8602 77.4292L21.2816 76.0161L21.5607 75.7393L21.8556 75.9777C23.2082 77.0728 25.5592 77.4762 28.346 77.0842C29.7733 76.8834 30.8097 76.5436 31.4582 76.1172C32.0862 75.7042 32.3095 75.2459 32.2564 74.7405C32.2281 74.4713 32.0941 74.2652 31.825 74.0915C31.5402 73.9078 31.1179 73.7724 30.5636 73.6776C29.4503 73.4872 27.9891 73.4888 26.4507 73.444C24.9439 73.4001 23.3674 73.3105 22.1314 72.9093C20.88 72.5029 19.8767 71.7377 19.7253 70.2998C19.5695 68.8188 20.3331 67.629 21.5924 66.77C22.8371 65.9211 24.6036 65.3609 26.6069 65.0791Z" fill="white" stroke="white" stroke-width="0.865503"/>
<path d="M93.9904 52.5007L94.1374 52.6949L103.296 64.8085L103.747 65.4045L100.172 65.9072L100.027 65.7069L97.903 62.7966L89.2634 64.0118L87.8061 67.4258L87.7053 67.6608L84.2017 68.1536L84.5153 67.4501L90.8959 53.1508L90.9984 52.9215L93.9904 52.5007ZM90.367 61.3867L96.2892 60.5538L92.7843 55.7089L90.367 61.3867Z" fill="#E40210" stroke="#E40210" stroke-width="0.865503"/>
<path d="M66.3142 56.3938L66.5732 58.8548L55.2471 60.4479L55.5867 63.6752L65.5521 62.2735L65.805 64.6772L55.8396 66.0789L56.1994 69.4985L67.5254 67.9054L67.7845 70.3674L53.304 72.4042L51.8337 58.4306L66.3142 56.3938Z" fill="#E40210" stroke="#E40210" stroke-width="0.865503"/>
<path d="M76.2771 54.993C79.0871 54.5978 81.3466 54.8247 82.9733 55.7148C84.6247 56.6184 85.5645 58.1728 85.7858 60.2756L85.8832 61.2012C86.1045 63.3041 85.5145 65.0745 84.0985 66.4096C82.7039 67.7246 80.5572 68.5714 77.7474 68.9666L69.7451 70.0922L68.2748 56.1185L76.2771 54.993ZM72.6386 67.168L77.2282 66.5225C79.1971 66.2455 80.6377 65.7489 81.5401 64.9639C82.4081 64.2088 82.8371 63.1323 82.6671 61.5165L82.5981 60.861C82.4281 59.2454 81.7885 58.32 80.7893 57.8275C79.7503 57.3155 78.249 57.2328 76.2799 57.5097L71.6903 58.1553L72.6386 67.168Z" fill="#E40210" stroke="#E40210" stroke-width="0.865503"/>
<path d="M44.5186 59.4599C46.2051 59.2228 47.6116 59.3602 48.6465 59.9388C49.7045 60.5305 50.3124 61.5484 50.4564 62.916C50.6003 64.2839 50.2208 65.4372 49.3149 66.3003C48.5455 67.0332 47.4344 67.5198 46.0507 67.7904L51.6895 71.8748L52.5629 72.5089L48.3949 73.0952L48.2574 72.9913L42.1137 68.3618L38.3781 68.8873L38.9604 74.4222L35.8059 74.8659L34.3357 60.8922L44.5186 59.4599ZM38.1212 66.4457L45.0317 65.4737C45.9873 65.3393 46.584 65.0696 46.9233 64.7326C47.2418 64.416 47.3908 63.9812 47.3251 63.3564C47.258 62.7201 47.0209 62.3351 46.6458 62.1145C46.2468 61.88 45.613 61.7837 44.6575 61.9181L37.7471 62.8901L38.1212 66.4457Z" fill="#E40210" stroke="#E40210" stroke-width="0.865503"/>
<path d="M26.2593 61.7748C29.3741 61.3368 32.296 61.7344 33.9599 63.0521L34.3378 63.3508L33.9841 63.7022L32.605 65.07L32.3358 65.3375L32.0437 65.1174C30.8504 64.2218 28.7317 63.8664 26.4184 64.1917C25.1116 64.3755 24.0772 64.7036 23.4009 65.1168C22.7232 65.5309 22.4949 65.9635 22.5381 66.3746C22.5624 66.6053 22.6829 66.7898 22.9521 66.951C23.2366 67.1214 23.66 67.2463 24.217 67.3329C25.3355 67.5069 26.8008 67.5027 28.3453 67.5545C29.858 67.6053 31.4395 67.7107 32.6811 68.1343C33.939 68.5634 34.9391 69.3558 35.0924 70.8119C35.2536 72.3439 34.5423 73.5712 33.2733 74.4621C32.0271 75.337 30.2275 75.9057 28.1101 76.2035C24.5843 76.6994 21.3384 76.3125 19.5249 74.7648L19.1714 74.4636L19.5126 74.1249L20.9341 72.7117L21.2131 72.435L21.508 72.6734C22.8606 73.7685 25.2116 74.1719 27.9984 73.7799C29.4257 73.5791 30.4621 73.2393 31.1106 72.8129C31.7386 72.3999 31.9619 71.9416 31.9088 71.4362C31.8805 71.167 31.7465 70.9609 31.4774 70.7872C31.1926 70.6035 30.7703 70.4681 30.216 70.3733C29.1027 70.1829 27.6415 70.1845 26.1031 70.1397C24.5963 70.0958 23.0198 70.0062 21.7838 69.6049C20.5324 69.1986 19.5291 68.4333 19.3777 66.9955C19.2219 65.5145 19.9855 64.3247 21.2448 63.4657C22.4895 62.6168 24.256 62.0566 26.2593 61.7748Z" fill="#E40210" stroke="#E40210" stroke-width="0.865503"/>
</svg>
