<svg width="127" height="141" viewBox="0 0 127 141" fill="none" xmlns="http://www.w3.org/2000/svg">
<g filter="url(#filter0_dddd_2283_10080)">
<rect width="110.784" height="110.784" rx="21.6376" transform="matrix(0.990252 -0.139284 0.10464 0.99451 2.47296 15.4305)" fill="white"/>
<path d="M96.811 55.8074L96.9581 56.0016L106.117 68.1152L106.567 68.7112L102.993 69.214L102.847 69.0137L100.724 66.1034L92.084 67.3186L90.6268 70.7326L90.5259 70.9675L87.0223 71.4603L87.3359 70.7569L93.7165 56.4576L93.819 56.2283L96.811 55.8074ZM93.1876 64.6935L99.1098 63.8605L95.6049 59.0156L93.1876 64.6935Z" fill="white" stroke="white" stroke-width="0.865503"/>
<path d="M69.1347 59.7006L69.3937 62.1616L58.0676 63.7546L58.4072 66.9819L68.3726 65.5803L68.6255 67.984L58.6601 69.3857L59.0199 72.8053L70.3459 71.2122L70.605 73.6742L56.1245 75.711L54.6542 61.7373L69.1347 59.7006Z" fill="white" stroke="white" stroke-width="0.865503"/>
<path d="M79.0979 58.2986C81.9079 57.9034 84.1674 58.1303 85.7941 59.0204C87.4455 59.9241 88.3853 61.4785 88.6066 63.5813L88.704 64.5068C88.9253 66.6098 88.3353 68.3802 86.9193 69.7153C85.5247 71.0303 83.378 71.877 80.5682 72.2723L72.5659 73.3978L71.0956 59.4242L79.0979 58.2986ZM75.4594 70.4737L80.049 69.8282C82.0179 69.5512 83.4585 69.0546 84.3609 68.2696C85.2289 67.5144 85.6579 66.4379 85.4879 64.8222L85.4189 64.1666C85.2489 62.5511 84.6093 61.6257 83.6101 61.1332C82.5711 60.6212 81.0698 60.5384 79.1007 60.8154L74.5111 61.461L75.4594 70.4737Z" fill="white" stroke="white" stroke-width="0.865503"/>
<path d="M47.3395 62.7656C49.026 62.5284 50.4326 62.6658 51.4675 63.2445C52.5255 63.8361 53.1333 64.8541 53.2773 66.2216C53.4212 67.5896 53.0417 68.7429 52.1358 69.606C51.3664 70.3389 50.2553 70.8254 48.8716 71.096L54.5104 75.1805L55.3838 75.8146L51.2158 76.4008L51.0783 76.297L44.9347 71.6675L41.199 72.193L41.7814 77.7278L38.6269 78.1715L37.1566 64.1979L47.3395 62.7656ZM40.9421 69.7514L47.8526 68.7794C48.8082 68.6449 49.4049 68.3752 49.7442 68.0382C50.0627 67.7216 50.2117 67.2869 50.146 66.662C50.0789 66.0258 49.8418 65.6408 49.4667 65.4202C49.0677 65.1857 48.4339 65.0894 47.4785 65.2238L40.568 66.1958L40.9421 69.7514Z" fill="white" stroke="white" stroke-width="0.865503"/>
<path d="M29.0798 65.0791C32.1947 64.6411 35.1166 65.0387 36.7805 66.3565L37.1583 66.6552L36.8047 67.0065L35.4255 68.3743L35.1563 68.6418L34.8643 68.4217C33.671 67.5262 31.5522 67.1707 29.2389 67.4961C27.9322 67.6799 26.8978 68.008 26.2214 68.4212C25.5437 68.8352 25.3155 69.2678 25.3587 69.6789C25.383 69.9096 25.5035 70.0941 25.7726 70.2554C26.0571 70.4257 26.4806 70.5506 27.0375 70.6373C28.1561 70.8112 29.6213 70.807 31.1659 70.8588C32.6785 70.9096 34.2601 71.0151 35.5016 71.4386C36.7595 71.8677 37.7596 72.6601 37.9129 74.1163C38.0741 75.6482 37.3629 76.8755 36.0938 77.7664C34.8476 78.6413 33.048 79.21 30.9306 79.5078C27.4048 80.0037 24.1589 79.6169 22.3455 78.0691L21.9919 77.768L22.3331 77.4292L23.7546 76.0161L24.0336 75.7393L24.3286 75.9777C25.6812 77.0728 28.0321 77.4762 30.8189 77.0842C32.2463 76.8834 33.2826 76.5436 33.9311 76.1172C34.5591 75.7042 34.7825 75.2459 34.7293 74.7405C34.701 74.4713 34.5671 74.2652 34.298 74.0915C34.0131 73.9078 33.5909 73.7724 33.0365 73.6776C31.9232 73.4872 30.462 73.4888 28.9236 73.444C27.4168 73.4001 25.8404 73.3105 24.6044 72.9093C23.3529 72.5029 22.3497 71.7377 22.1983 70.2998C22.0425 68.8188 22.8061 67.629 24.0654 66.77C25.3101 65.9211 27.0766 65.3609 29.0798 65.0791Z" fill="white" stroke="white" stroke-width="0.865503"/>
<path d="M96.4634 52.5007L96.6104 52.6949L105.769 64.8085L106.22 65.4045L102.645 65.9072L102.5 65.7069L100.376 62.7966L91.7364 64.0118L90.2791 67.4258L90.1782 67.6608L86.6746 68.1536L86.9882 67.4501L93.3689 53.1508L93.4714 52.9215L96.4634 52.5007ZM92.84 61.3867L98.7621 60.5538L95.2573 55.7089L92.84 61.3867Z" fill="#E40210" stroke="#E40210" stroke-width="0.865503"/>
<path d="M68.7872 56.3938L69.0461 58.8548L57.7201 60.4479L58.0597 63.6752L68.0251 62.2735L68.278 64.6772L58.3126 66.0789L58.6724 69.4985L69.9984 67.9054L70.2574 70.3674L55.7769 72.4042L54.3067 58.4306L68.7872 56.3938Z" fill="#E40210" stroke="#E40210" stroke-width="0.865503"/>
<path d="M78.7501 54.993C81.56 54.5978 83.8195 54.8247 85.4462 55.7148C87.0976 56.6184 88.0375 58.1728 88.2588 60.2756L88.3562 61.2012C88.5774 63.3041 87.9874 65.0745 86.5715 66.4096C85.1768 67.7246 83.0302 68.5714 80.2203 68.9666L72.218 70.0922L70.7478 56.1185L78.7501 54.993ZM75.1116 67.168L79.7011 66.5225C81.6701 66.2455 83.1106 65.7489 84.0131 64.9639C84.8811 64.2088 85.3101 63.1323 85.1401 61.5165L85.0711 60.861C84.9011 59.2454 84.2614 58.32 83.2622 57.8275C82.2233 57.3155 80.7219 57.2328 78.7528 57.5097L74.1632 58.1553L75.1116 67.168Z" fill="#E40210" stroke="#E40210" stroke-width="0.865503"/>
<path d="M46.9916 59.4599C48.678 59.2228 50.0846 59.3602 51.1195 59.9388C52.1775 60.5305 52.7853 61.5484 52.9293 62.916C53.0732 64.2839 52.6938 65.4372 51.7879 66.3003C51.0185 67.0332 49.9073 67.5198 48.5236 67.7904L54.1624 71.8748L55.0358 72.5089L50.8679 73.0952L50.7303 72.9913L44.5867 68.3618L40.851 68.8873L41.4334 74.4222L38.2789 74.8659L36.8086 60.8922L46.9916 59.4599ZM40.5941 66.4457L47.5046 65.4737C48.4603 65.3393 49.0569 65.0696 49.3962 64.7326C49.7147 64.416 49.8638 63.9812 49.798 63.3564C49.731 62.7201 49.4938 62.3351 49.1188 62.1145C48.7198 61.88 48.0859 61.7837 47.1305 61.9181L40.22 62.8901L40.5941 66.4457Z" fill="#E40210" stroke="#E40210" stroke-width="0.865503"/>
<path d="M28.7322 61.7748C31.8471 61.3368 34.769 61.7344 36.4329 63.0521L36.8107 63.3508L36.4571 63.7022L35.078 65.07L34.8087 65.3375L34.5167 65.1174C33.3234 64.2218 31.2046 63.8664 28.8913 64.1917C27.5846 64.3755 26.5502 64.7036 25.8738 65.1168C25.1961 65.5309 24.9679 65.9635 25.0111 66.3746C25.0354 66.6053 25.1559 66.7898 25.425 66.951C25.7095 67.1214 26.133 67.2463 26.6899 67.3329C27.8085 67.5069 29.2737 67.5027 30.8183 67.5545C32.3309 67.6053 33.9125 67.7107 35.154 68.1343C36.4119 68.5634 37.412 69.3558 37.5653 70.8119C37.7265 72.3439 37.0153 73.5712 35.7463 74.4621C34.5 75.337 32.7005 75.9057 30.5831 76.2035C27.0572 76.6994 23.8113 76.3125 21.9979 74.7648L21.6443 74.4636L21.9855 74.1249L23.407 72.7117L23.686 72.435L23.981 72.6734C25.3336 73.7685 27.6845 74.1719 30.4713 73.7799C31.8987 73.5791 32.935 73.2393 33.5835 72.8129C34.2115 72.3999 34.4349 71.9416 34.3817 71.4362C34.3534 71.167 34.2195 70.9609 33.9504 70.7872C33.6655 70.6035 33.2433 70.4681 32.6889 70.3733C31.5756 70.1829 30.1144 70.1845 28.576 70.1397C27.0693 70.0958 25.4928 70.0062 24.2568 69.6049C23.0053 69.1986 22.0021 68.4333 21.8507 66.9955C21.6949 65.5145 22.4585 64.3247 23.7178 63.4657C24.9625 62.6168 26.729 62.0566 28.7322 61.7748Z" fill="#E40210" stroke="#E40210" stroke-width="0.865503"/>
</g>
<defs>
<filter id="filter0_dddd_2283_10080" x="-2.14305" y="0" width="130.529" height="142.917" filterUnits="userSpaceOnUse" color-interpolation-filters="sRGB">
<feFlood flood-opacity="0" result="BackgroundImageFix"/>
<feColorMatrix in="SourceAlpha" type="matrix" values="0 0 0 0 0 0 0 0 0 0 0 0 0 0 0 0 0 0 127 0" result="hardAlpha"/>
<feOffset dy="1.154"/>
<feGaussianBlur stdDeviation="0.577002"/>
<feColorMatrix type="matrix" values="0 0 0 0 0 0 0 0 0 0 0 0 0 0 0 0 0 0 0.1 0"/>
<feBlend mode="normal" in2="BackgroundImageFix" result="effect1_dropShadow_2283_10080"/>
<feColorMatrix in="SourceAlpha" type="matrix" values="0 0 0 0 0 0 0 0 0 0 0 0 0 0 0 0 0 0 127 0" result="hardAlpha"/>
<feOffset dy="3.46201"/>
<feGaussianBlur stdDeviation="1.73101"/>
<feColorMatrix type="matrix" values="0 0 0 0 0 0 0 0 0 0 0 0 0 0 0 0 0 0 0.09 0"/>
<feBlend mode="normal" in2="effect1_dropShadow_2283_10080" result="effect2_dropShadow_2283_10080"/>
<feColorMatrix in="SourceAlpha" type="matrix" values="0 0 0 0 0 0 0 0 0 0 0 0 0 0 0 0 0 0 127 0" result="hardAlpha"/>
<feOffset dy="6.92402"/>
<feGaussianBlur stdDeviation="2.30801"/>
<feColorMatrix type="matrix" values="0 0 0 0 0 0 0 0 0 0 0 0 0 0 0 0 0 0 0.05 0"/>
<feBlend mode="normal" in2="effect2_dropShadow_2283_10080" result="effect3_dropShadow_2283_10080"/>
<feColorMatrix in="SourceAlpha" type="matrix" values="0 0 0 0 0 0 0 0 0 0 0 0 0 0 0 0 0 0 127 0" result="hardAlpha"/>
<feOffset dy="12.694"/>
<feGaussianBlur stdDeviation="2.30801"/>
<feColorMatrix type="matrix" values="0 0 0 0 0 0 0 0 0 0 0 0 0 0 0 0 0 0 0.01 0"/>
<feBlend mode="normal" in2="effect3_dropShadow_2283_10080" result="effect4_dropShadow_2283_10080"/>
<feBlend mode="normal" in="SourceGraphic" in2="effect4_dropShadow_2283_10080" result="shape"/>
</filter>
</defs>
</svg>
