<svg width="108" height="19" viewBox="0 0 108 19" fill="none" xmlns="http://www.w3.org/2000/svg">
<path d="M83.447 17.6433L93.2683 1.28988H96.4326L106.254 17.6433H103L100.582 13.4587H89.0293L86.6113 17.6433H83.447ZM90.1339 11.5107H99.4775L94.8206 3.38215L90.1339 11.5107Z" fill="black"/>
<path d="M64.7781 17.5265V1.28988H74.3514C81.3462 1.28988 84.9621 3.91639 84.9621 8.83513V9.98125C84.9621 14.9 81.3462 17.5265 74.3514 17.5265H64.7781ZM74.0254 15.5208C79.064 15.5208 81.9982 14.0882 81.9982 9.81411V9.00228C81.9982 4.72823 79.064 3.29558 74.0254 3.29558H67.6827V15.5208H74.0254Z" fill="black"/>
<path d="M43.9965 17.5265V1.28988H61.2166V3.27171H46.9011V8.33371H59.4976V10.2439H46.9011V15.5447H61.2166V17.5265H43.9965Z" fill="black"/>
<path d="M21.8806 17.5265V1.28988H34.2103C38.3597 1.28988 40.6123 2.88967 40.6123 5.99373C40.6123 9.09778 38.3597 10.6737 34.2103 10.6737H33.6768L41.1458 17.5265H37.4706L30.2684 10.6737H24.7852V17.5265H21.8806ZM24.7852 8.71575H34.0621C36.5814 8.71575 37.7373 7.78453 37.7373 5.99373C37.7373 4.17904 36.5814 3.24783 34.0621 3.24783H24.7852V8.71575Z" fill="black"/>
<path d="M11.5764 17.8378C7.16027 17.8378 3.3665 16.8111 1.46962 14.7815L3.42578 13.3011C5.11519 15.0203 8.16799 15.9276 11.7543 15.9276C15.4295 15.9276 17.4746 14.9726 17.4746 13.2056C17.4746 9.05097 2.4477 11.6058 2.4477 5.6365C2.4477 2.48469 6.18219 0.980415 11.1615 0.980415C15.0442 0.980415 18.4527 1.95939 20.2013 3.70243L18.3045 5.13508C16.7929 3.70244 14.0365 2.8906 11.0429 2.8906C7.66413 2.8906 5.38194 3.79794 5.38194 5.42161C5.38194 9.31362 20.4384 6.902 20.4384 12.9907C20.4384 16.3097 16.8522 17.8378 11.5764 17.8378Z" fill="black"/>
<path d="M97.001 0.309224L108 18.6238H102.42L102.134 18.1273L100.003 14.4394H89.6088L87.1909 18.6238H81.7014L83.1889 16.1448C83.0837 16.2285 82.9764 16.3114 82.8651 16.3909C80.8453 17.835 77.9494 18.5069 74.3512 18.5069H63.7822V0.309224H74.3512L74.3514 1.28988H64.7781V17.5265H74.3514C81.1274 17.5265 84.7329 15.0617 84.9518 10.436L84.9621 9.98125V8.83513C84.9621 3.91639 81.3462 1.28988 74.3514 1.28988L74.3512 0.309224C77.9493 0.309224 80.8453 0.98113 82.8651 2.42518C84.9384 3.90752 85.9589 6.10986 85.9589 8.83511V9.981C85.9589 10.6247 85.8997 11.2391 85.7855 11.8219L92.6994 0.309224H97.001ZM93.2683 1.28988L83.447 17.6433H86.6113L89.0293 13.4587H100.582L103 17.6433H106.254L96.4326 1.28988H93.2683ZM43.9965 1.28988V17.5265H61.2166V15.5447H46.9011V10.2439H59.4976V8.33371H46.9011V3.27171H61.2166V1.28988H43.9965ZM81.0013 9.8145V9.00265C81.0013 7.11674 80.3759 6.03405 79.3498 5.36229C78.2373 4.63404 76.4892 4.27536 74.0254 4.27536H68.6788V14.5408H74.0254L74.0254 15.5208H67.6827V3.29558H74.0254C79.064 3.29558 81.9982 4.72823 81.9982 9.00228V9.81411L81.9895 10.2065C81.8126 14.1763 78.9065 15.5208 74.0254 15.5208L74.0254 14.5408C76.4892 14.5408 78.2373 14.1821 79.3498 13.4538C80.3757 12.7821 81.0012 11.7001 81.0013 9.8145ZM99.4775 11.5107H90.1339L94.8206 3.38215L99.4775 11.5107ZM91.8447 10.5302H97.7716L94.8166 5.37367L91.8447 10.5302ZM36.7415 5.99418C36.7415 5.30611 36.5341 4.94383 36.2348 4.71592C35.8841 4.44902 35.2269 4.22778 34.0619 4.22778H25.7814V7.73577H34.0619L34.0621 8.71575H24.7852V3.24783H34.0621C36.5814 3.24783 37.7373 4.17904 37.7373 5.99373L37.7233 6.31892C37.5873 7.8971 36.4242 8.71575 34.0621 8.71575L34.0619 7.73577C35.2265 7.73577 35.8852 7.51459 36.2369 7.24866C36.5366 7.02199 36.7414 6.66594 36.7415 5.99418ZM6.3778 5.42124C6.3778 5.53842 6.41263 5.66465 6.64481 5.84423C6.91015 6.04938 7.35724 6.25555 8.02087 6.4513C9.35692 6.84536 11.135 7.08282 13.0815 7.4162C14.9551 7.7371 16.9724 8.14711 18.53 8.90958C19.495 9.382 20.3543 10.032 20.8837 10.9232V4.42221L20.808 4.48013L18.2304 6.42648L17.6133 5.84112C16.3639 4.65695 13.9092 3.87102 11.0431 3.87099C9.4231 3.87099 8.1628 4.09188 7.34703 4.44496C6.52809 4.79945 6.37794 5.16646 6.3778 5.42124ZM62.2127 4.25157H47.8971V7.35311H60.494V11.2241H47.8971V14.5645H62.2127V18.5069H37.0673L36.7783 18.2308L29.8654 11.6543H25.7814V18.5069H20.8837V15.2595C20.3695 16.2199 19.5223 16.9773 18.4459 17.5285C16.6857 18.43 14.2853 18.8182 11.5761 18.8182C7.08524 18.8181 2.92532 17.7873 0.73586 15.4446L0 14.6576L3.52372 11.9904L4.14184 12.6203C5.55866 14.062 8.2849 14.9471 11.7538 14.9472L11.7543 15.9276C8.16799 15.9276 5.11519 15.0203 3.42578 13.3011L1.46962 14.7815C3.3665 16.8111 7.16027 17.8378 11.5764 17.8378C16.8522 17.8378 20.4384 16.3097 20.4384 12.9907C20.4381 6.99723 5.8478 9.24043 5.3928 5.59912L5.38194 5.42161C5.38194 3.79794 7.66413 2.8906 11.0429 2.8906L11.6014 2.89988C14.376 2.99433 16.8873 3.79223 18.3045 5.13508L20.2013 3.70243C18.562 2.0684 15.464 1.1058 11.8841 0.991791L11.1615 0.980415C6.18219 0.980415 2.4477 2.48469 2.4477 5.6365C2.4477 11.6058 17.4746 9.05097 17.4746 13.2056C17.4746 14.9726 15.4295 15.9276 11.7543 15.9276L11.7538 14.9472C13.5302 14.9472 14.7863 14.7127 15.5603 14.3463C16.2846 14.0033 16.478 13.6156 16.478 13.2056C16.478 13.0285 16.4177 12.8732 16.1879 12.6833C15.9244 12.4657 15.483 12.2483 14.8265 12.0442C13.5039 11.633 11.7319 11.3912 9.79429 11.0679C7.92933 10.7568 5.91728 10.3693 4.3647 9.63661C2.77757 8.88756 1.45175 7.659 1.45175 5.63635C1.45181 3.58608 2.7036 2.13428 4.48979 1.25034C6.24014 0.38424 8.59393 0 11.1619 0C15.1282 7.17119e-05 18.8511 0.985379 20.8837 2.98778V0.309224H34.2101L34.2103 1.28988H21.8806V17.5265H24.7852V10.6737H30.2684L37.4706 17.5265H41.1458L33.6768 10.6737H34.2103C38.2299 10.6737 40.4695 9.19488 40.6058 6.28066L40.6123 5.99373C40.6123 2.88967 38.3597 1.28988 34.2103 1.28988L34.2101 0.309224C36.3898 0.309224 38.2361 0.725894 39.5598 1.68987C40.9337 2.69059 41.6087 4.18157 41.6087 5.99418C41.6085 7.80724 40.9338 9.29347 39.5577 10.2882C38.6318 10.9574 37.4502 11.3566 36.0792 11.5375L43.0005 17.8874V0.309224H62.2127V4.25157Z" fill="black"/>
</svg>
